<svg width="514" height="325" viewBox="0 0 514 325" fill="none" xmlns="http://www.w3.org/2000/svg">
<g filter="url(#filter0_d_91_63)">
<mask id="path-1-inside-1_91_63" fill="white">
<path fill-rule="evenodd" clip-rule="evenodd" d="M178 0H12C7.58172 0 4 3.58172 4 8V193C4 197.418 7.58172 201 12 201H212C216.418 201 220 197.418 220 193V68.4041C220 63.9859 223.582 60.4041 228 60.4041H502C506.418 60.4041 510 56.8224 510 52.4041V8C510 3.58172 506.418 0 502 0H220H178Z"/>
</mask>
<path fill-rule="evenodd" clip-rule="evenodd" d="M178 0H12C7.58172 0 4 3.58172 4 8V193C4 197.418 7.58172 201 12 201H212C216.418 201 220 197.418 220 193V68.4041C220 63.9859 223.582 60.4041 228 60.4041H502C506.418 60.4041 510 56.8224 510 52.4041V8C510 3.58172 506.418 0 502 0H220H178Z" fill="#2A2C7B"/>
<path d="M12 1H178V-1H12V1ZM5 193V8H3V193H5ZM212 200H12V202H212V200ZM219 68.4041V193H221V68.4041H219ZM502 59.4041H228V61.4041H502V59.4041ZM509 8V52.4041H511V8H509ZM220 1H502V-1H220V1ZM178 1H220V-1H178V1ZM511 8C511 3.02944 506.971 -1 502 -1V1C505.866 1 509 4.13401 509 8H511ZM221 68.4041C221 64.5382 224.134 61.4041 228 61.4041V59.4041C223.029 59.4041 219 63.4336 219 68.4041H221ZM212 202C216.971 202 221 197.971 221 193H219C219 196.866 215.866 200 212 200V202ZM3 193C3 197.971 7.02943 202 12 202V200C8.134 200 5 196.866 5 193H3ZM502 61.4041C506.971 61.4041 511 57.3747 511 52.4041H509C509 56.2701 505.866 59.4041 502 59.4041V61.4041ZM12 -1C7.02944 -1 3 3.02944 3 8H5C5 4.13401 8.13401 1 12 1V-1Z" fill="#44479F" mask="url(#path-1-inside-1_91_63)"/>
</g>
<path d="M25.4148 25H24.3068L27.5114 16.2727H28.6023L31.8068 25H30.6989L28.0909 17.6534H28.0227L25.4148 25ZM25.8239 21.5909H30.2898V22.5284H25.8239V21.5909ZM33.0298 27.4545V18.4545H34.0014V19.4943H34.1207C34.1946 19.3807 34.2969 19.2358 34.4276 19.0597C34.5611 18.8807 34.7514 18.7216 34.9986 18.5824C35.2486 18.4403 35.5866 18.3693 36.0128 18.3693C36.5639 18.3693 37.0497 18.5071 37.4702 18.7827C37.8906 19.0582 38.2188 19.4489 38.4545 19.9545C38.6903 20.4602 38.8082 21.0568 38.8082 21.7443C38.8082 22.4375 38.6903 23.0384 38.4545 23.5469C38.2188 24.0526 37.892 24.4446 37.4744 24.723C37.0568 24.9986 36.5753 25.1364 36.0298 25.1364C35.6094 25.1364 35.2727 25.0668 35.0199 24.9276C34.767 24.7855 34.5724 24.625 34.4361 24.446C34.2997 24.2642 34.1946 24.1136 34.1207 23.9943H34.0355V27.4545H33.0298ZM34.0185 21.7273C34.0185 22.2216 34.0909 22.6577 34.2358 23.0355C34.3807 23.4105 34.5923 23.7045 34.8707 23.9176C35.1491 24.1278 35.4901 24.233 35.8935 24.233C36.3139 24.233 36.6648 24.1222 36.946 23.9006C37.2301 23.6761 37.4432 23.375 37.5852 22.9972C37.7301 22.6165 37.8026 22.1932 37.8026 21.7273C37.8026 21.267 37.7315 20.8523 37.5895 20.483C37.4503 20.1108 37.2386 19.8168 36.9545 19.6009C36.6733 19.3821 36.3196 19.2727 35.8935 19.2727C35.4844 19.2727 35.1406 19.3764 34.8622 19.5838C34.5838 19.7884 34.3736 20.0753 34.2315 20.4446C34.0895 20.8111 34.0185 21.2386 34.0185 21.7273ZM40.3423 27.4545V18.4545H41.3139V19.4943H41.4332C41.5071 19.3807 41.6094 19.2358 41.7401 19.0597C41.8736 18.8807 42.0639 18.7216 42.3111 18.5824C42.5611 18.4403 42.8991 18.3693 43.3253 18.3693C43.8764 18.3693 44.3622 18.5071 44.7827 18.7827C45.2031 19.0582 45.5313 19.4489 45.767 19.9545C46.0028 20.4602 46.1207 21.0568 46.1207 21.7443C46.1207 22.4375 46.0028 23.0384 45.767 23.5469C45.5313 24.0526 45.2045 24.4446 44.7869 24.723C44.3693 24.9986 43.8878 25.1364 43.3423 25.1364C42.9219 25.1364 42.5852 25.0668 42.3324 24.9276C42.0795 24.7855 41.8849 24.625 41.7486 24.446C41.6122 24.2642 41.5071 24.1136 41.4332 23.9943H41.348V27.4545H40.3423ZM41.331 21.7273C41.331 22.2216 41.4034 22.6577 41.5483 23.0355C41.6932 23.4105 41.9048 23.7045 42.1832 23.9176C42.4616 24.1278 42.8026 24.233 43.206 24.233C43.6264 24.233 43.9773 24.1222 44.2585 23.9006C44.5426 23.6761 44.7557 23.375 44.8977 22.9972C45.0426 22.6165 45.1151 22.1932 45.1151 21.7273C45.1151 21.267 45.044 20.8523 44.902 20.483C44.7628 20.1108 44.5511 19.8168 44.267 19.6009C43.9858 19.3821 43.6321 19.2727 43.206 19.2727C42.7969 19.2727 42.4531 19.3764 42.1747 19.5838C41.8963 19.7884 41.6861 20.0753 41.544 20.4446C41.402 20.8111 41.331 21.2386 41.331 21.7273ZM48.6605 16.2727V25H47.6548V16.2727H48.6605ZM50.5025 25V18.4545H51.5082V25H50.5025ZM51.0138 17.3636C50.8178 17.3636 50.6488 17.2969 50.5067 17.1634C50.3675 17.0298 50.2979 16.8693 50.2979 16.6818C50.2979 16.4943 50.3675 16.3338 50.5067 16.2003C50.6488 16.0668 50.8178 16 51.0138 16C51.2099 16 51.3775 16.0668 51.5167 16.2003C51.6587 16.3338 51.7298 16.4943 51.7298 16.6818C51.7298 16.8693 51.6587 17.0298 51.5167 17.1634C51.3775 17.2969 51.2099 17.3636 51.0138 17.3636ZM56.0092 25.1364C55.3956 25.1364 54.8672 24.9915 54.424 24.7017C53.9808 24.4119 53.6399 24.0128 53.4013 23.5043C53.1626 22.9957 53.0433 22.4148 53.0433 21.7614C53.0433 21.0966 53.1655 20.5099 53.4098 20.0014C53.657 19.4901 54.0007 19.0909 54.4411 18.804C54.8842 18.5142 55.4013 18.3693 55.9922 18.3693C56.4524 18.3693 56.8672 18.4545 57.2365 18.625C57.6058 18.7955 57.9084 19.0341 58.1442 19.3409C58.38 19.6477 58.5263 20.0057 58.5831 20.4148H57.5774C57.5007 20.1165 57.3303 19.8523 57.0661 19.6222C56.8047 19.3892 56.4524 19.2727 56.0092 19.2727C55.6172 19.2727 55.2734 19.375 54.978 19.5795C54.6854 19.7812 54.4567 20.0668 54.2919 20.4361C54.13 20.8026 54.049 21.233 54.049 21.7273C54.049 22.233 54.1286 22.6733 54.2876 23.0483C54.4496 23.4233 54.6768 23.7145 54.9695 23.9219C55.2649 24.1293 55.6115 24.233 56.0092 24.233C56.2706 24.233 56.5078 24.1875 56.7209 24.0966C56.9339 24.0057 57.1143 23.875 57.2621 23.7045C57.4098 23.5341 57.5149 23.3295 57.5774 23.0909H58.5831C58.5263 23.4773 58.3857 23.8253 58.1612 24.1349C57.9396 24.4418 57.6456 24.6861 57.2791 24.8679C56.9155 25.0469 56.4922 25.1364 56.0092 25.1364ZM61.9794 25.1534C61.5646 25.1534 61.1882 25.0753 60.8501 24.919C60.5121 24.7599 60.2436 24.5312 60.0447 24.233C59.8459 23.9318 59.7464 23.5682 59.7464 23.142C59.7464 22.767 59.8203 22.4631 59.968 22.2301C60.1158 21.9943 60.3132 21.8097 60.5604 21.6761C60.8075 21.5426 61.0803 21.4432 61.3786 21.3778C61.6797 21.3097 61.9822 21.2557 62.2862 21.2159C62.6839 21.1648 63.0064 21.1264 63.2536 21.1009C63.5036 21.0724 63.6854 21.0256 63.799 20.9602C63.9155 20.8949 63.9737 20.7812 63.9737 20.6193V20.5852C63.9737 20.1648 63.8587 19.8381 63.6286 19.6051C63.4013 19.3722 63.0561 19.2557 62.593 19.2557C62.1129 19.2557 61.7365 19.3608 61.4638 19.571C61.1911 19.7812 60.9993 20.0057 60.8885 20.2443L59.9339 19.9034C60.1044 19.5057 60.3317 19.196 60.6158 18.9744C60.9027 18.75 61.2152 18.5937 61.5533 18.5057C61.8942 18.4148 62.2294 18.3693 62.5589 18.3693C62.7692 18.3693 63.0107 18.3949 63.2834 18.446C63.5589 18.4943 63.8246 18.5952 64.0803 18.7486C64.3388 18.902 64.5533 19.1335 64.7237 19.4432C64.8942 19.7528 64.9794 20.1676 64.9794 20.6875V25H63.9737V24.1136H63.9226C63.8544 24.2557 63.7408 24.4077 63.5817 24.5696C63.4226 24.7315 63.2109 24.8693 62.9467 24.983C62.6825 25.0966 62.3601 25.1534 61.9794 25.1534ZM62.1328 24.25C62.5305 24.25 62.8658 24.1719 63.1385 24.0156C63.4141 23.8594 63.6214 23.6577 63.7607 23.4105C63.9027 23.1634 63.9737 22.9034 63.9737 22.6307V21.7102C63.9311 21.7614 63.8374 21.8082 63.6925 21.8509C63.5504 21.8906 63.3857 21.9261 63.1982 21.9574C63.0135 21.9858 62.8331 22.0114 62.657 22.0341C62.4837 22.054 62.343 22.071 62.2351 22.0852C61.9737 22.1193 61.7294 22.1747 61.5021 22.2514C61.2777 22.3253 61.0959 22.4375 60.9567 22.5881C60.8203 22.7358 60.7521 22.9375 60.7521 23.1932C60.7521 23.5426 60.8814 23.8068 61.1399 23.9858C61.4013 24.1619 61.7322 24.25 62.1328 24.25ZM69.6616 18.4545V19.3068H66.2695V18.4545H69.6616ZM67.2582 16.8864H68.2638V23.125C68.2638 23.4091 68.305 23.6222 68.3874 23.7642C68.4727 23.9034 68.5806 23.9972 68.7113 24.0455C68.8448 24.0909 68.9854 24.1136 69.1332 24.1136C69.244 24.1136 69.3349 24.108 69.4059 24.0966C69.4769 24.0824 69.5337 24.071 69.5763 24.0625L69.7809 24.9659C69.7127 24.9915 69.6175 25.017 69.4954 25.0426C69.3732 25.071 69.2184 25.0852 69.0309 25.0852C68.7468 25.0852 68.4684 25.0241 68.1957 24.902C67.9258 24.7798 67.7013 24.5938 67.5224 24.3438C67.3462 24.0938 67.2582 23.7784 67.2582 23.3977V16.8864ZM71.1744 25V18.4545H72.18V25H71.1744ZM71.6857 17.3636C71.4897 17.3636 71.3207 17.2969 71.1786 17.1634C71.0394 17.0298 70.9698 16.8693 70.9698 16.6818C70.9698 16.4943 71.0394 16.3338 71.1786 16.2003C71.3207 16.0668 71.4897 16 71.6857 16C71.8817 16 72.0494 16.0668 72.1886 16.2003C72.3306 16.3338 72.4016 16.4943 72.4016 16.6818C72.4016 16.8693 72.3306 17.0298 72.1886 17.1634C72.0494 17.2969 71.8817 17.3636 71.6857 17.3636ZM76.6811 25.1364C76.0902 25.1364 75.5717 24.9957 75.1257 24.7145C74.6825 24.4332 74.3359 24.0398 74.0859 23.5341C73.8388 23.0284 73.7152 22.4375 73.7152 21.7614C73.7152 21.0795 73.8388 20.4844 74.0859 19.9759C74.3359 19.4673 74.6825 19.0724 75.1257 18.7912C75.5717 18.5099 76.0902 18.3693 76.6811 18.3693C77.272 18.3693 77.7891 18.5099 78.2322 18.7912C78.6783 19.0724 79.0249 19.4673 79.272 19.9759C79.522 20.4844 79.647 21.0795 79.647 21.7614C79.647 22.4375 79.522 23.0284 79.272 23.5341C79.0249 24.0398 78.6783 24.4332 78.2322 24.7145C77.7891 24.9957 77.272 25.1364 76.6811 25.1364ZM76.6811 24.233C77.13 24.233 77.4993 24.1179 77.7891 23.8878C78.0788 23.6577 78.2933 23.3551 78.4325 22.9801C78.5717 22.6051 78.6413 22.1989 78.6413 21.7614C78.6413 21.3239 78.5717 20.9162 78.4325 20.5384C78.2933 20.1605 78.0788 19.8551 77.7891 19.6222C77.4993 19.3892 77.13 19.2727 76.6811 19.2727C76.2322 19.2727 75.8629 19.3892 75.5732 19.6222C75.2834 19.8551 75.0689 20.1605 74.9297 20.5384C74.7905 20.9162 74.7209 21.3239 74.7209 21.7614C74.7209 22.1989 74.7905 22.6051 74.9297 22.9801C75.0689 23.3551 75.2834 23.6577 75.5732 23.8878C75.8629 24.1179 76.2322 24.233 76.6811 24.233ZM82.1879 21.0625V25H81.1822V18.4545H82.1538V19.4773H82.239C82.3924 19.1449 82.6254 18.8778 82.9379 18.6761C83.2504 18.4716 83.6538 18.3693 84.1481 18.3693C84.5913 18.3693 84.979 18.4602 85.3114 18.642C85.6438 18.821 85.9023 19.0938 86.087 19.4602C86.2717 19.8239 86.364 20.2841 86.364 20.8409V25H85.3583V20.9091C85.3583 20.3949 85.2248 19.9943 84.9577 19.7074C84.6907 19.4176 84.3242 19.2727 83.8583 19.2727C83.5373 19.2727 83.2504 19.3423 82.9975 19.4815C82.7475 19.6207 82.5501 19.8239 82.4052 20.0909C82.2603 20.358 82.1879 20.6818 82.1879 21.0625Z" fill="white"/>
<rect x="4.5" y="216.5" width="505" height="46" rx="7.5" fill="#1B1A51" stroke="#2D2C71"/>
<path d="M242.057 244V235.273H245.006C245.688 235.273 246.247 235.389 246.685 235.622C247.122 235.852 247.446 236.169 247.656 236.572C247.866 236.976 247.972 237.435 247.972 237.949C247.972 238.463 247.866 238.919 247.656 239.317C247.446 239.714 247.124 240.027 246.689 240.254C246.254 240.479 245.699 240.591 245.023 240.591H242.636V239.636H244.989C245.455 239.636 245.83 239.568 246.114 239.432C246.401 239.295 246.608 239.102 246.736 238.852C246.866 238.599 246.932 238.298 246.932 237.949C246.932 237.599 246.866 237.294 246.736 237.033C246.605 236.771 246.396 236.57 246.109 236.428C245.822 236.283 245.443 236.21 244.972 236.21H243.114V244H242.057ZM246.165 240.08L248.312 244H247.085L244.972 240.08H246.165ZM249.255 236.21V235.273H255.801V236.21H253.056V244H252V236.21H249.255ZM264.432 239.636C264.432 240.557 264.266 241.352 263.934 242.023C263.601 242.693 263.145 243.21 262.566 243.574C261.986 243.938 261.324 244.119 260.58 244.119C259.836 244.119 259.174 243.938 258.594 243.574C258.015 243.21 257.559 242.693 257.226 242.023C256.894 241.352 256.728 240.557 256.728 239.636C256.728 238.716 256.894 237.92 257.226 237.25C257.559 236.58 258.015 236.062 258.594 235.699C259.174 235.335 259.836 235.153 260.58 235.153C261.324 235.153 261.986 235.335 262.566 235.699C263.145 236.062 263.601 236.58 263.934 237.25C264.266 237.92 264.432 238.716 264.432 239.636ZM263.409 239.636C263.409 238.881 263.283 238.243 263.03 237.723C262.78 237.203 262.441 236.81 262.012 236.543C261.586 236.276 261.108 236.142 260.58 236.142C260.051 236.142 259.573 236.276 259.144 236.543C258.718 236.81 258.378 237.203 258.125 237.723C257.875 238.243 257.75 238.881 257.75 239.636C257.75 240.392 257.875 241.03 258.125 241.55C258.378 242.07 258.718 242.463 259.144 242.73C259.573 242.997 260.051 243.131 260.58 243.131C261.108 243.131 261.586 242.997 262.012 242.73C262.441 242.463 262.78 242.07 263.03 241.55C263.283 241.03 263.409 240.392 263.409 239.636ZM270.982 237.455C270.931 237.023 270.723 236.688 270.36 236.449C269.996 236.21 269.55 236.091 269.022 236.091C268.635 236.091 268.297 236.153 268.007 236.278C267.721 236.403 267.496 236.575 267.334 236.794C267.175 237.013 267.096 237.261 267.096 237.54C267.096 237.773 267.151 237.973 267.262 238.141C267.375 238.305 267.52 238.443 267.696 238.554C267.873 238.662 268.057 238.751 268.25 238.822C268.444 238.891 268.621 238.946 268.783 238.989L269.669 239.227C269.897 239.287 270.15 239.369 270.428 239.474C270.709 239.58 270.978 239.723 271.233 239.905C271.492 240.084 271.705 240.314 271.873 240.595C272.04 240.876 272.124 241.222 272.124 241.631C272.124 242.102 272 242.528 271.753 242.909C271.509 243.29 271.151 243.592 270.679 243.817C270.211 244.041 269.641 244.153 268.971 244.153C268.346 244.153 267.804 244.053 267.347 243.851C266.892 243.649 266.534 243.368 266.273 243.007C266.015 242.646 265.868 242.227 265.834 241.75H266.925C266.953 242.08 267.064 242.352 267.257 242.568C267.453 242.781 267.701 242.94 267.999 243.045C268.3 243.148 268.624 243.199 268.971 243.199C269.374 243.199 269.736 243.134 270.057 243.003C270.378 242.869 270.632 242.685 270.82 242.449C271.007 242.21 271.101 241.932 271.101 241.614C271.101 241.324 271.02 241.088 270.858 240.906C270.696 240.724 270.483 240.577 270.219 240.463C269.955 240.349 269.669 240.25 269.363 240.165L268.289 239.858C267.607 239.662 267.067 239.382 266.669 239.018C266.272 238.655 266.073 238.179 266.073 237.591C266.073 237.102 266.205 236.676 266.469 236.312C266.736 235.946 267.094 235.662 267.543 235.46C267.995 235.256 268.499 235.153 269.056 235.153C269.618 235.153 270.118 235.254 270.556 235.456C270.993 235.655 271.34 235.928 271.596 236.274C271.854 236.621 271.99 237.014 272.005 237.455H270.982Z" fill="white"/>
<rect x="234.5" y="75.5" width="275" height="125" rx="7.5" fill="#1B1A51" stroke="#343379"/>
<rect x="247.5" y="112.5" width="116" height="31" rx="7.5" fill="#2E3085" stroke="#3D3F9E"/>
<path d="M261.793 131V124.455H264.081C264.537 124.455 264.913 124.533 265.209 124.691C265.505 124.847 265.726 125.056 265.871 125.321C266.016 125.583 266.088 125.874 266.088 126.193C266.088 126.474 266.038 126.707 265.938 126.89C265.84 127.073 265.71 127.218 265.548 127.325C265.388 127.431 265.214 127.51 265.027 127.561V127.625C265.227 127.638 265.429 127.708 265.631 127.836C265.833 127.964 266.003 128.147 266.139 128.386C266.276 128.624 266.344 128.916 266.344 129.261C266.344 129.589 266.269 129.885 266.12 130.147C265.971 130.409 265.735 130.616 265.414 130.77C265.092 130.923 264.673 131 264.158 131H261.793ZM262.585 130.297H264.158C264.675 130.297 265.043 130.197 265.26 129.996C265.48 129.794 265.589 129.549 265.589 129.261C265.589 129.04 265.533 128.835 265.42 128.648C265.307 128.458 265.146 128.307 264.938 128.194C264.729 128.079 264.482 128.021 264.196 128.021H262.585V130.297ZM262.585 127.331H264.055C264.294 127.331 264.509 127.284 264.701 127.19C264.895 127.097 265.048 126.964 265.161 126.794C265.276 126.624 265.334 126.423 265.334 126.193C265.334 125.906 265.234 125.662 265.033 125.461C264.833 125.259 264.516 125.158 264.081 125.158H262.585V127.331ZM267.646 131V124.455H268.439V130.297H271.481V131H267.646ZM272.709 131V124.455H276.659V125.158H273.501V127.369H276.454V128.072H273.501V130.297H276.71V131H272.709ZM285.809 124.455V131H285.042L281.475 125.861H281.411V131H280.619V124.455H281.386L284.965 129.607H285.029V124.455H285.809ZM289.351 131.102C288.878 131.102 288.47 130.998 288.127 130.789C287.786 130.578 287.523 130.284 287.338 129.907C287.154 129.528 287.063 129.087 287.063 128.584C287.063 128.081 287.154 127.638 287.338 127.254C287.523 126.869 287.781 126.568 288.111 126.353C288.443 126.136 288.831 126.027 289.274 126.027C289.53 126.027 289.783 126.07 290.032 126.155C290.281 126.24 290.508 126.379 290.713 126.57C290.917 126.76 291.08 127.011 291.202 127.325C291.323 127.638 291.384 128.023 291.384 128.482V128.801H287.6V128.149H290.617C290.617 127.872 290.561 127.625 290.451 127.408C290.342 127.19 290.186 127.019 289.984 126.893C289.784 126.767 289.547 126.705 289.274 126.705C288.974 126.705 288.714 126.779 288.495 126.928C288.277 127.075 288.11 127.267 287.993 127.504C287.876 127.74 287.817 127.994 287.817 128.264V128.699C287.817 129.07 287.881 129.384 288.009 129.642C288.139 129.897 288.319 130.092 288.549 130.227C288.779 130.359 289.046 130.425 289.351 130.425C289.549 130.425 289.728 130.397 289.888 130.342C290.05 130.284 290.19 130.199 290.307 130.086C290.424 129.971 290.514 129.828 290.578 129.658L291.307 129.862C291.23 130.109 291.101 130.327 290.92 130.514C290.739 130.7 290.516 130.844 290.249 130.949C289.983 131.051 289.684 131.102 289.351 131.102ZM294.666 126.091V126.73H292.122V126.091H294.666ZM292.864 124.915H293.618V129.594C293.618 129.807 293.649 129.967 293.71 130.073C293.774 130.178 293.855 130.248 293.953 130.284C294.054 130.318 294.159 130.335 294.27 130.335C294.353 130.335 294.421 130.331 294.474 130.322C294.528 130.312 294.57 130.303 294.602 130.297L294.756 130.974C294.704 130.994 294.633 131.013 294.541 131.032C294.45 131.053 294.334 131.064 294.193 131.064C293.98 131.064 293.771 131.018 293.567 130.926C293.364 130.835 293.196 130.695 293.062 130.508C292.93 130.32 292.864 130.084 292.864 129.798V124.915ZM296.913 131L295.417 126.091H296.21L297.271 129.849H297.322L298.37 126.091H299.176L300.211 129.837H300.262L301.323 126.091H302.116L300.62 131H299.879L298.805 127.229H298.728L297.654 131H296.913ZM304.941 131.102C304.497 131.102 304.108 130.997 303.774 130.786C303.442 130.575 303.182 130.28 302.994 129.901C302.809 129.521 302.716 129.078 302.716 128.571C302.716 128.06 302.809 127.613 302.994 127.232C303.182 126.85 303.442 126.554 303.774 126.343C304.108 126.132 304.497 126.027 304.941 126.027C305.384 126.027 305.771 126.132 306.104 126.343C306.438 126.554 306.698 126.85 306.884 127.232C307.071 127.613 307.165 128.06 307.165 128.571C307.165 129.078 307.071 129.521 306.884 129.901C306.698 130.28 306.438 130.575 306.104 130.786C305.771 130.997 305.384 131.102 304.941 131.102ZM304.941 130.425C305.277 130.425 305.554 130.338 305.771 130.166C305.989 129.993 306.15 129.766 306.254 129.485C306.358 129.204 306.411 128.899 306.411 128.571C306.411 128.243 306.358 127.937 306.254 127.654C306.15 127.37 305.989 127.141 305.771 126.967C305.554 126.792 305.277 126.705 304.941 126.705C304.604 126.705 304.327 126.792 304.11 126.967C303.892 127.141 303.731 127.37 303.627 127.654C303.523 127.937 303.47 128.243 303.47 128.571C303.47 128.899 303.523 129.204 303.627 129.485C303.731 129.766 303.892 129.993 304.11 130.166C304.327 130.338 304.604 130.425 304.941 130.425ZM308.316 131V126.091H309.045V126.832H309.096C309.186 126.589 309.348 126.392 309.582 126.241C309.816 126.09 310.081 126.014 310.375 126.014C310.43 126.014 310.499 126.015 310.582 126.017C310.665 126.02 310.728 126.023 310.771 126.027V126.794C310.745 126.788 310.687 126.778 310.595 126.765C310.506 126.75 310.411 126.743 310.311 126.743C310.072 126.743 309.859 126.793 309.671 126.893C309.486 126.991 309.339 127.127 309.23 127.302C309.124 127.475 309.071 127.672 309.071 127.893V131H308.316ZM312.368 129.21L312.355 128.277H312.509L314.656 126.091H315.59L313.301 128.405H313.237L312.368 129.21ZM311.665 131V124.455H312.419V131H311.665ZM314.784 131L312.867 128.571L313.404 128.047L315.743 131H314.784ZM319.194 124.455H320.14L322.364 129.888H322.441L324.666 124.455H325.612V131H324.87V126.027H324.806L322.761 131H322.045L319.999 126.027H319.935V131H319.194V124.455ZM329.093 131.102C328.65 131.102 328.261 130.997 327.926 130.786C327.594 130.575 327.334 130.28 327.146 129.901C326.961 129.521 326.868 129.078 326.868 128.571C326.868 128.06 326.961 127.613 327.146 127.232C327.334 126.85 327.594 126.554 327.926 126.343C328.261 126.132 328.65 126.027 329.093 126.027C329.536 126.027 329.924 126.132 330.256 126.343C330.591 126.554 330.851 126.85 331.036 127.232C331.224 127.613 331.317 128.06 331.317 128.571C331.317 129.078 331.224 129.521 331.036 129.901C330.851 130.28 330.591 130.575 330.256 130.786C329.924 130.997 329.536 131.102 329.093 131.102ZM329.093 130.425C329.43 130.425 329.706 130.338 329.924 130.166C330.141 129.993 330.302 129.766 330.406 129.485C330.511 129.204 330.563 128.899 330.563 128.571C330.563 128.243 330.511 127.937 330.406 127.654C330.302 127.37 330.141 127.141 329.924 126.967C329.706 126.792 329.43 126.705 329.093 126.705C328.756 126.705 328.479 126.792 328.262 126.967C328.045 127.141 327.884 127.37 327.779 127.654C327.675 127.937 327.623 128.243 327.623 128.571C327.623 128.899 327.675 129.204 327.779 129.485C327.884 129.766 328.045 129.993 328.262 130.166C328.479 130.338 328.756 130.425 329.093 130.425ZM334.322 131.102C333.913 131.102 333.552 130.999 333.239 130.792C332.926 130.583 332.681 130.289 332.504 129.91C332.327 129.529 332.239 129.078 332.239 128.558C332.239 128.043 332.327 127.595 332.504 127.216C332.681 126.837 332.927 126.544 333.242 126.337C333.557 126.13 333.922 126.027 334.335 126.027C334.655 126.027 334.907 126.08 335.093 126.187C335.28 126.291 335.423 126.411 335.521 126.545C335.621 126.677 335.699 126.786 335.754 126.871H335.818V124.455H336.572V131H335.844V130.246H335.754C335.699 130.335 335.62 130.448 335.518 130.585C335.415 130.719 335.269 130.839 335.08 130.946C334.89 131.05 334.638 131.102 334.322 131.102ZM334.425 130.425C334.727 130.425 334.983 130.346 335.192 130.188C335.4 130.028 335.559 129.808 335.668 129.527C335.777 129.243 335.831 128.916 335.831 128.545C335.831 128.179 335.778 127.858 335.671 127.583C335.565 127.306 335.407 127.091 335.198 126.938C334.989 126.782 334.731 126.705 334.425 126.705C334.105 126.705 333.839 126.787 333.626 126.951C333.415 127.113 333.256 127.333 333.149 127.612C333.045 127.889 332.993 128.2 332.993 128.545C332.993 128.895 333.046 129.212 333.153 129.498C333.261 129.781 333.421 130.007 333.632 130.175C333.845 130.342 334.109 130.425 334.425 130.425ZM341.152 128.993V126.091H341.907V131H341.152V130.169H341.101C340.986 130.418 340.807 130.63 340.564 130.805C340.321 130.978 340.014 131.064 339.644 131.064C339.337 131.064 339.064 130.997 338.826 130.863C338.587 130.726 338.399 130.522 338.263 130.249C338.127 129.974 338.059 129.628 338.059 129.21V126.091H338.813V129.159C338.813 129.517 338.913 129.803 339.113 130.016C339.316 130.229 339.573 130.335 339.887 130.335C340.074 130.335 340.265 130.287 340.459 130.191C340.655 130.096 340.819 129.949 340.951 129.75C341.085 129.552 341.152 129.3 341.152 128.993ZM344.042 124.455V131H343.288V124.455H344.042ZM347.482 131.102C347.009 131.102 346.601 130.998 346.258 130.789C345.917 130.578 345.654 130.284 345.468 129.907C345.285 129.528 345.194 129.087 345.194 128.584C345.194 128.081 345.285 127.638 345.468 127.254C345.654 126.869 345.912 126.568 346.242 126.353C346.574 126.136 346.962 126.027 347.405 126.027C347.661 126.027 347.913 126.07 348.163 126.155C348.412 126.24 348.639 126.379 348.843 126.57C349.048 126.76 349.211 127.011 349.332 127.325C349.454 127.638 349.515 128.023 349.515 128.482V128.801H345.731V128.149H348.748C348.748 127.872 348.692 127.625 348.581 127.408C348.473 127.19 348.317 127.019 348.115 126.893C347.915 126.767 347.678 126.705 347.405 126.705C347.105 126.705 346.845 126.779 346.625 126.928C346.408 127.075 346.241 127.267 346.124 127.504C346.006 127.74 345.948 127.994 345.948 128.264V128.699C345.948 129.07 346.012 129.384 346.14 129.642C346.27 129.897 346.45 130.092 346.68 130.227C346.91 130.359 347.177 130.425 347.482 130.425C347.68 130.425 347.859 130.397 348.019 130.342C348.181 130.284 348.32 130.199 348.438 130.086C348.555 129.971 348.645 129.828 348.709 129.658L349.438 129.862C349.361 130.109 349.232 130.327 349.051 130.514C348.87 130.7 348.646 130.844 348.38 130.949C348.114 131.051 347.814 131.102 347.482 131.102Z" fill="white"/>
<rect x="372.5" y="112.5" width="124" height="31" rx="7.5" fill="#2E3085" stroke="#3D3F9E"/>
<path d="M385.372 126.091C385.334 125.767 385.178 125.516 384.906 125.337C384.633 125.158 384.298 125.068 383.902 125.068C383.612 125.068 383.359 125.115 383.141 125.209C382.926 125.303 382.758 125.431 382.636 125.596C382.517 125.76 382.457 125.946 382.457 126.155C382.457 126.33 382.499 126.48 382.582 126.605C382.667 126.729 382.776 126.832 382.908 126.915C383.04 126.996 383.179 127.064 383.324 127.117C383.468 127.168 383.602 127.21 383.723 127.241L384.388 127.42C384.558 127.465 384.748 127.527 384.957 127.606C385.168 127.685 385.369 127.792 385.561 127.929C385.755 128.063 385.914 128.235 386.04 128.446C386.166 128.657 386.229 128.916 386.229 129.223C386.229 129.577 386.136 129.896 385.951 130.182C385.767 130.467 385.499 130.694 385.145 130.863C384.794 131.031 384.366 131.115 383.864 131.115C383.395 131.115 382.989 131.039 382.646 130.888C382.305 130.737 382.037 130.526 381.841 130.255C381.647 129.985 381.537 129.67 381.511 129.312H382.33C382.351 129.56 382.434 129.764 382.579 129.926C382.726 130.086 382.911 130.205 383.135 130.284C383.361 130.361 383.604 130.399 383.864 130.399C384.166 130.399 384.438 130.35 384.679 130.252C384.919 130.152 385.11 130.013 385.251 129.837C385.391 129.658 385.462 129.449 385.462 129.21C385.462 128.993 385.401 128.816 385.279 128.68C385.158 128.543 384.998 128.433 384.8 128.347C384.602 128.262 384.388 128.187 384.158 128.124L383.352 127.893C382.841 127.746 382.436 127.537 382.138 127.264C381.839 126.991 381.69 126.634 381.69 126.193C381.69 125.827 381.789 125.507 381.988 125.234C382.188 124.96 382.456 124.746 382.793 124.595C383.132 124.442 383.51 124.365 383.928 124.365C384.349 124.365 384.724 124.441 385.053 124.592C385.381 124.741 385.641 124.946 385.832 125.206C386.026 125.466 386.129 125.761 386.139 126.091H385.372ZM388.874 131.115C388.563 131.115 388.281 131.056 388.027 130.939C387.774 130.82 387.572 130.648 387.423 130.425C387.274 130.199 387.199 129.926 387.199 129.607C387.199 129.325 387.255 129.097 387.366 128.923C387.476 128.746 387.625 128.607 387.81 128.507C387.995 128.407 388.2 128.332 388.424 128.283C388.649 128.232 388.876 128.192 389.104 128.162C389.403 128.124 389.644 128.095 389.83 128.076C390.017 128.054 390.154 128.019 390.239 127.97C390.326 127.921 390.37 127.836 390.37 127.714V127.689C390.37 127.374 390.284 127.129 390.111 126.954C389.941 126.779 389.682 126.692 389.334 126.692C388.974 126.692 388.692 126.771 388.487 126.928C388.283 127.086 388.139 127.254 388.056 127.433L387.34 127.178C387.468 126.879 387.638 126.647 387.851 126.481C388.067 126.312 388.301 126.195 388.555 126.129C388.81 126.061 389.062 126.027 389.309 126.027C389.467 126.027 389.648 126.046 389.852 126.085C390.059 126.121 390.258 126.196 390.45 126.311C390.644 126.426 390.805 126.6 390.932 126.832C391.06 127.065 391.124 127.376 391.124 127.766V131H390.37V130.335H390.332C390.28 130.442 390.195 130.556 390.076 130.677C389.957 130.799 389.798 130.902 389.6 130.987C389.402 131.072 389.16 131.115 388.874 131.115ZM388.989 130.438C389.288 130.438 389.539 130.379 389.744 130.262C389.95 130.145 390.106 129.993 390.21 129.808C390.317 129.623 390.37 129.428 390.37 129.223V128.533C390.338 128.571 390.268 128.606 390.159 128.638C390.052 128.668 389.929 128.695 389.788 128.718C389.65 128.739 389.514 128.759 389.382 128.776C389.252 128.79 389.147 128.803 389.066 128.814C388.87 128.839 388.687 128.881 388.516 128.939C388.348 128.994 388.212 129.078 388.107 129.191C388.005 129.302 387.954 129.453 387.954 129.645C387.954 129.907 388.051 130.105 388.245 130.239C388.441 130.371 388.689 130.438 388.989 130.438ZM394.636 126.091V126.73H392.092V126.091H394.636ZM392.833 124.915H393.588V129.594C393.588 129.807 393.618 129.967 393.68 130.073C393.744 130.178 393.825 130.248 393.923 130.284C394.023 130.318 394.129 130.335 394.24 130.335C394.323 130.335 394.391 130.331 394.444 130.322C394.497 130.312 394.54 130.303 394.572 130.297L394.725 130.974C394.674 130.994 394.603 131.013 394.511 131.032C394.42 131.053 394.303 131.064 394.163 131.064C393.95 131.064 393.741 131.018 393.536 130.926C393.334 130.835 393.166 130.695 393.031 130.508C392.899 130.32 392.833 130.084 392.833 129.798V124.915ZM397.776 131.102C397.303 131.102 396.895 130.998 396.552 130.789C396.211 130.578 395.948 130.284 395.762 129.907C395.579 129.528 395.488 129.087 395.488 128.584C395.488 128.081 395.579 127.638 395.762 127.254C395.948 126.869 396.206 126.568 396.536 126.353C396.868 126.136 397.256 126.027 397.699 126.027C397.955 126.027 398.207 126.07 398.457 126.155C398.706 126.24 398.933 126.379 399.137 126.57C399.342 126.76 399.505 127.011 399.626 127.325C399.748 127.638 399.809 128.023 399.809 128.482V128.801H396.025V128.149H399.042C399.042 127.872 398.986 127.625 398.875 127.408C398.767 127.19 398.611 127.019 398.409 126.893C398.208 126.767 397.972 126.705 397.699 126.705C397.399 126.705 397.139 126.779 396.919 126.928C396.702 127.075 396.535 127.267 396.418 127.504C396.3 127.74 396.242 127.994 396.242 128.264V128.699C396.242 129.07 396.306 129.384 396.434 129.642C396.564 129.897 396.744 130.092 396.974 130.227C397.204 130.359 397.471 130.425 397.776 130.425C397.974 130.425 398.153 130.397 398.313 130.342C398.475 130.284 398.614 130.199 398.732 130.086C398.849 129.971 398.939 129.828 399.003 129.658L399.732 129.862C399.655 130.109 399.526 130.327 399.345 130.514C399.164 130.7 398.94 130.844 398.674 130.949C398.408 131.051 398.108 131.102 397.776 131.102ZM401.71 124.455V131H400.956V124.455H401.71ZM403.846 124.455V131H403.092V124.455H403.846ZM405.227 131V126.091H405.982V131H405.227ZM405.611 125.273C405.464 125.273 405.337 125.223 405.231 125.123C405.126 125.022 405.074 124.902 405.074 124.761C405.074 124.621 405.126 124.5 405.231 124.4C405.337 124.3 405.464 124.25 405.611 124.25C405.758 124.25 405.884 124.3 405.988 124.4C406.095 124.5 406.148 124.621 406.148 124.761C406.148 124.902 406.095 125.022 405.988 125.123C405.884 125.223 405.758 125.273 405.611 125.273ZM409.498 126.091V126.73H406.954V126.091H409.498ZM407.696 124.915H408.45V129.594C408.45 129.807 408.481 129.967 408.543 130.073C408.606 130.178 408.687 130.248 408.785 130.284C408.886 130.318 408.991 130.335 409.102 130.335C409.185 130.335 409.253 130.331 409.306 130.322C409.36 130.312 409.402 130.303 409.434 130.297L409.588 130.974C409.536 130.994 409.465 131.013 409.373 131.032C409.282 131.053 409.166 131.064 409.025 131.064C408.812 131.064 408.603 131.018 408.399 130.926C408.196 130.835 408.028 130.695 407.894 130.508C407.762 130.32 407.696 130.084 407.696 129.798V124.915ZM412.638 131.102C412.165 131.102 411.757 130.998 411.414 130.789C411.073 130.578 410.81 130.284 410.625 129.907C410.441 129.528 410.35 129.087 410.35 128.584C410.35 128.081 410.441 127.638 410.625 127.254C410.81 126.869 411.068 126.568 411.398 126.353C411.731 126.136 412.118 126.027 412.562 126.027C412.817 126.027 413.07 126.07 413.319 126.155C413.568 126.24 413.795 126.379 414 126.57C414.204 126.76 414.367 127.011 414.489 127.325C414.61 127.638 414.671 128.023 414.671 128.482V128.801H410.887V128.149H413.904C413.904 127.872 413.848 127.625 413.738 127.408C413.629 127.19 413.473 127.019 413.271 126.893C413.071 126.767 412.834 126.705 412.562 126.705C412.261 126.705 412.001 126.779 411.782 126.928C411.564 127.075 411.397 127.267 411.28 127.504C411.163 127.74 411.104 127.994 411.104 128.264V128.699C411.104 129.07 411.168 129.384 411.296 129.642C411.426 129.897 411.606 130.092 411.836 130.227C412.066 130.359 412.334 130.425 412.638 130.425C412.836 130.425 413.015 130.397 413.175 130.342C413.337 130.284 413.477 130.199 413.594 130.086C413.711 129.971 413.802 129.828 413.866 129.658L414.594 129.862C414.517 130.109 414.389 130.327 414.207 130.514C414.026 130.7 413.803 130.844 413.536 130.949C413.27 131.051 412.971 131.102 412.638 131.102ZM423.642 124.455V131H422.875L419.308 125.861H419.244V131H418.452V124.455H419.219L422.798 129.607H422.862V124.455H423.642ZM427.184 131.102C426.711 131.102 426.303 130.998 425.96 130.789C425.619 130.578 425.356 130.284 425.171 129.907C424.987 129.528 424.896 129.087 424.896 128.584C424.896 128.081 424.987 127.638 425.171 127.254C425.356 126.869 425.614 126.568 425.944 126.353C426.276 126.136 426.664 126.027 427.107 126.027C427.363 126.027 427.616 126.07 427.865 126.155C428.114 126.24 428.341 126.379 428.546 126.57C428.75 126.76 428.913 127.011 429.035 127.325C429.156 127.638 429.217 128.023 429.217 128.482V128.801H425.433V128.149H428.45C428.45 127.872 428.394 127.625 428.284 127.408C428.175 127.19 428.019 127.019 427.817 126.893C427.617 126.767 427.38 126.705 427.107 126.705C426.807 126.705 426.547 126.779 426.328 126.928C426.11 127.075 425.943 127.267 425.826 127.504C425.709 127.74 425.65 127.994 425.65 128.264V128.699C425.65 129.07 425.714 129.384 425.842 129.642C425.972 129.897 426.152 130.092 426.382 130.227C426.612 130.359 426.879 130.425 427.184 130.425C427.382 130.425 427.561 130.397 427.721 130.342C427.883 130.284 428.023 130.199 428.14 130.086C428.257 129.971 428.347 129.828 428.411 129.658L429.14 129.862C429.063 130.109 428.934 130.327 428.753 130.514C428.572 130.7 428.349 130.844 428.082 130.949C427.816 131.051 427.517 131.102 427.184 131.102ZM432.499 126.091V126.73H429.955V126.091H432.499ZM430.697 124.915H431.451V129.594C431.451 129.807 431.482 129.967 431.544 130.073C431.607 130.178 431.688 130.248 431.786 130.284C431.887 130.318 431.992 130.335 432.103 130.335C432.186 130.335 432.254 130.331 432.307 130.322C432.361 130.312 432.403 130.303 432.435 130.297L432.589 130.974C432.537 130.994 432.466 131.013 432.374 131.032C432.283 131.053 432.167 131.064 432.026 131.064C431.813 131.064 431.604 131.018 431.4 130.926C431.197 130.835 431.029 130.695 430.895 130.508C430.763 130.32 430.697 130.084 430.697 129.798V124.915ZM434.746 131L433.25 126.091H434.043L435.104 129.849H435.155L436.203 126.091H437.009L438.044 129.837H438.095L439.156 126.091H439.949L438.453 131H437.712L436.638 127.229H436.561L435.487 131H434.746ZM442.774 131.102C442.33 131.102 441.941 130.997 441.607 130.786C441.275 130.575 441.015 130.28 440.827 129.901C440.642 129.521 440.549 129.078 440.549 128.571C440.549 128.06 440.642 127.613 440.827 127.232C441.015 126.85 441.275 126.554 441.607 126.343C441.941 126.132 442.33 126.027 442.774 126.027C443.217 126.027 443.604 126.132 443.937 126.343C444.271 126.554 444.531 126.85 444.717 127.232C444.904 127.613 444.998 128.06 444.998 128.571C444.998 129.078 444.904 129.521 444.717 129.901C444.531 130.28 444.271 130.575 443.937 130.786C443.604 130.997 443.217 131.102 442.774 131.102ZM442.774 130.425C443.11 130.425 443.387 130.338 443.604 130.166C443.822 129.993 443.983 129.766 444.087 129.485C444.191 129.204 444.244 128.899 444.244 128.571C444.244 128.243 444.191 127.937 444.087 127.654C443.983 127.37 443.822 127.141 443.604 126.967C443.387 126.792 443.11 126.705 442.774 126.705C442.437 126.705 442.16 126.792 441.943 126.967C441.725 127.141 441.564 127.37 441.46 127.654C441.356 127.937 441.303 128.243 441.303 128.571C441.303 128.899 441.356 129.204 441.46 129.485C441.564 129.766 441.725 129.993 441.943 130.166C442.16 130.338 442.437 130.425 442.774 130.425ZM446.149 131V126.091H446.878V126.832H446.929C447.019 126.589 447.181 126.392 447.415 126.241C447.649 126.09 447.914 126.014 448.208 126.014C448.263 126.014 448.332 126.015 448.415 126.017C448.498 126.02 448.561 126.023 448.604 126.027V126.794C448.578 126.788 448.52 126.778 448.428 126.765C448.339 126.75 448.244 126.743 448.144 126.743C447.905 126.743 447.692 126.793 447.504 126.893C447.319 126.991 447.172 127.127 447.063 127.302C446.957 127.475 446.904 127.672 446.904 127.893V131H446.149ZM450.201 129.21L450.188 128.277H450.342L452.489 126.091H453.423L451.134 128.405H451.07L450.201 129.21ZM449.498 131V124.455H450.252V131H449.498ZM452.617 131L450.7 128.571L451.237 128.047L453.576 131H452.617ZM457.027 124.455H457.973L460.197 129.888H460.274L462.499 124.455H463.445V131H462.703V126.027H462.639L460.594 131H459.878L457.832 126.027H457.768V131H457.027V124.455ZM466.926 131.102C466.483 131.102 466.094 130.997 465.759 130.786C465.427 130.575 465.167 130.28 464.979 129.901C464.794 129.521 464.701 129.078 464.701 128.571C464.701 128.06 464.794 127.613 464.979 127.232C465.167 126.85 465.427 126.554 465.759 126.343C466.094 126.132 466.483 126.027 466.926 126.027C467.369 126.027 467.757 126.132 468.089 126.343C468.424 126.554 468.684 126.85 468.869 127.232C469.057 127.613 469.15 128.06 469.15 128.571C469.15 129.078 469.057 129.521 468.869 129.901C468.684 130.28 468.424 130.575 468.089 130.786C467.757 130.997 467.369 131.102 466.926 131.102ZM466.926 130.425C467.263 130.425 467.54 130.338 467.757 130.166C467.974 129.993 468.135 129.766 468.239 129.485C468.344 129.204 468.396 128.899 468.396 128.571C468.396 128.243 468.344 127.937 468.239 127.654C468.135 127.37 467.974 127.141 467.757 126.967C467.54 126.792 467.263 126.705 466.926 126.705C466.589 126.705 466.312 126.792 466.095 126.967C465.878 127.141 465.717 127.37 465.612 127.654C465.508 127.937 465.456 128.243 465.456 128.571C465.456 128.899 465.508 129.204 465.612 129.485C465.717 129.766 465.878 129.993 466.095 130.166C466.312 130.338 466.589 130.425 466.926 130.425ZM472.155 131.102C471.746 131.102 471.385 130.999 471.072 130.792C470.759 130.583 470.514 130.289 470.337 129.91C470.16 129.529 470.072 129.078 470.072 128.558C470.072 128.043 470.16 127.595 470.337 127.216C470.514 126.837 470.76 126.544 471.075 126.337C471.39 126.13 471.755 126.027 472.168 126.027C472.488 126.027 472.74 126.08 472.926 126.187C473.113 126.291 473.256 126.411 473.354 126.545C473.454 126.677 473.532 126.786 473.587 126.871H473.651V124.455H474.405V131H473.677V130.246H473.587C473.532 130.335 473.453 130.448 473.351 130.585C473.248 130.719 473.102 130.839 472.913 130.946C472.723 131.05 472.471 131.102 472.155 131.102ZM472.258 130.425C472.56 130.425 472.816 130.346 473.025 130.188C473.233 130.028 473.392 129.808 473.501 129.527C473.61 129.243 473.664 128.916 473.664 128.545C473.664 128.179 473.611 127.858 473.504 127.583C473.398 127.306 473.24 127.091 473.031 126.938C472.822 126.782 472.564 126.705 472.258 126.705C471.938 126.705 471.672 126.787 471.459 126.951C471.248 127.113 471.089 127.333 470.982 127.612C470.878 127.889 470.826 128.2 470.826 128.545C470.826 128.895 470.879 129.212 470.986 129.498C471.094 129.781 471.254 130.007 471.465 130.175C471.678 130.342 471.942 130.425 472.258 130.425ZM478.985 128.993V126.091H479.74V131H478.985V130.169H478.934C478.819 130.418 478.64 130.63 478.397 130.805C478.154 130.978 477.847 131.064 477.477 131.064C477.17 131.064 476.897 130.997 476.659 130.863C476.42 130.726 476.232 130.522 476.096 130.249C475.96 129.974 475.892 129.628 475.892 129.21V126.091H476.646V129.159C476.646 129.517 476.746 129.803 476.946 130.016C477.149 130.229 477.406 130.335 477.72 130.335C477.907 130.335 478.098 130.287 478.292 130.191C478.488 130.096 478.652 129.949 478.784 129.75C478.918 129.552 478.985 129.3 478.985 128.993ZM481.875 124.455V131H481.121V124.455H481.875ZM485.315 131.102C484.842 131.102 484.434 130.998 484.091 130.789C483.75 130.578 483.487 130.284 483.301 129.907C483.118 129.528 483.027 129.087 483.027 128.584C483.027 128.081 483.118 127.638 483.301 127.254C483.487 126.869 483.745 126.568 484.075 126.353C484.407 126.136 484.795 126.027 485.238 126.027C485.494 126.027 485.746 126.07 485.996 126.155C486.245 126.24 486.472 126.379 486.676 126.57C486.881 126.76 487.044 127.011 487.165 127.325C487.287 127.638 487.348 128.023 487.348 128.482V128.801H483.564V128.149H486.581C486.581 127.872 486.525 127.625 486.414 127.408C486.306 127.19 486.15 127.019 485.948 126.893C485.748 126.767 485.511 126.705 485.238 126.705C484.938 126.705 484.678 126.779 484.458 126.928C484.241 127.075 484.074 127.267 483.957 127.504C483.839 127.74 483.781 127.994 483.781 128.264V128.699C483.781 129.07 483.845 129.384 483.973 129.642C484.103 129.897 484.283 130.092 484.513 130.227C484.743 130.359 485.01 130.425 485.315 130.425C485.513 130.425 485.692 130.397 485.852 130.342C486.014 130.284 486.153 130.199 486.271 130.086C486.388 129.971 486.478 129.828 486.542 129.658L487.271 129.862C487.194 130.109 487.065 130.327 486.884 130.514C486.703 130.7 486.479 130.844 486.213 130.949C485.947 131.051 485.647 131.102 485.315 131.102Z" fill="white"/>
<rect x="247.5" y="156.5" width="251" height="31" rx="7.5" fill="#2E3085" stroke="#3D3F9E"/>
<path d="M304.793 176V169.455H305.585V172.369H309.075V169.455H309.868V176H309.075V173.072H305.585V176H304.793ZM314.446 173.993V171.091H315.2V176H314.446V175.169H314.395C314.28 175.418 314.101 175.63 313.858 175.805C313.615 175.978 313.308 176.064 312.938 176.064C312.631 176.064 312.358 175.997 312.119 175.863C311.881 175.726 311.693 175.522 311.557 175.249C311.421 174.974 311.352 174.628 311.352 174.21V171.091H312.107V174.159C312.107 174.517 312.207 174.803 312.407 175.016C312.61 175.229 312.867 175.335 313.181 175.335C313.368 175.335 313.559 175.287 313.753 175.191C313.949 175.096 314.113 174.949 314.245 174.75C314.379 174.552 314.446 174.3 314.446 173.993ZM316.684 176V169.455H317.438V171.871H317.502C317.558 171.786 317.634 171.677 317.733 171.545C317.833 171.411 317.975 171.291 318.161 171.187C318.348 171.08 318.602 171.027 318.921 171.027C319.335 171.027 319.699 171.13 320.014 171.337C320.33 171.544 320.576 171.837 320.753 172.216C320.93 172.595 321.018 173.043 321.018 173.558C321.018 174.078 320.93 174.529 320.753 174.91C320.576 175.289 320.331 175.583 320.018 175.792C319.704 175.999 319.343 176.102 318.934 176.102C318.619 176.102 318.366 176.05 318.177 175.946C317.987 175.839 317.841 175.719 317.739 175.585C317.637 175.448 317.558 175.335 317.502 175.246H317.413V176H316.684ZM317.426 173.545C317.426 173.916 317.48 174.243 317.589 174.527C317.697 174.808 317.856 175.028 318.065 175.188C318.274 175.346 318.529 175.425 318.832 175.425C319.147 175.425 319.41 175.342 319.621 175.175C319.834 175.007 319.994 174.781 320.101 174.498C320.209 174.212 320.264 173.895 320.264 173.545C320.264 173.2 320.21 172.889 320.104 172.612C320 172.333 319.841 172.113 319.628 171.951C319.417 171.787 319.152 171.705 318.832 171.705C318.525 171.705 318.267 171.782 318.059 171.938C317.85 172.091 317.692 172.306 317.585 172.583C317.479 172.858 317.426 173.179 317.426 173.545ZM322.274 176V169.455H323.028V171.871H323.092C323.148 171.786 323.224 171.677 323.322 171.545C323.422 171.411 323.565 171.291 323.751 171.187C323.938 171.08 324.192 171.027 324.511 171.027C324.925 171.027 325.289 171.13 325.604 171.337C325.92 171.544 326.166 171.837 326.343 172.216C326.519 172.595 326.608 173.043 326.608 173.558C326.608 174.078 326.519 174.529 326.343 174.91C326.166 175.289 325.921 175.583 325.608 175.792C325.294 175.999 324.933 176.102 324.524 176.102C324.209 176.102 323.956 176.05 323.767 175.946C323.577 175.839 323.431 175.719 323.329 175.585C323.226 175.448 323.148 175.335 323.092 175.246H323.003V176H322.274ZM323.016 173.545C323.016 173.916 323.07 174.243 323.179 174.527C323.287 174.808 323.446 175.028 323.655 175.188C323.864 175.346 324.119 175.425 324.422 175.425C324.737 175.425 325 175.342 325.211 175.175C325.424 175.007 325.584 174.781 325.691 174.498C325.799 174.212 325.854 173.895 325.854 173.545C325.854 173.2 325.8 172.889 325.694 172.612C325.589 172.333 325.431 172.113 325.218 171.951C325.007 171.787 324.741 171.705 324.422 171.705C324.115 171.705 323.857 171.782 323.648 171.938C323.44 172.091 323.282 172.306 323.175 172.583C323.069 172.858 323.016 173.179 323.016 173.545ZM328.516 169.455V176H327.762V169.455H328.516ZM331.956 176.102C331.483 176.102 331.075 175.998 330.732 175.789C330.391 175.578 330.127 175.284 329.942 174.907C329.759 174.528 329.667 174.087 329.667 173.584C329.667 173.081 329.759 172.638 329.942 172.254C330.127 171.869 330.385 171.568 330.716 171.353C331.048 171.136 331.436 171.027 331.879 171.027C332.135 171.027 332.387 171.07 332.636 171.155C332.886 171.24 333.113 171.379 333.317 171.57C333.522 171.76 333.685 172.011 333.806 172.325C333.928 172.638 333.988 173.023 333.988 173.482V173.801H330.204V173.149H333.221C333.221 172.872 333.166 172.625 333.055 172.408C332.946 172.19 332.791 172.019 332.588 171.893C332.388 171.767 332.152 171.705 331.879 171.705C331.578 171.705 331.319 171.779 331.099 171.928C330.882 172.075 330.714 172.267 330.597 172.504C330.48 172.74 330.422 172.994 330.422 173.264V173.699C330.422 174.07 330.485 174.384 330.613 174.642C330.743 174.897 330.923 175.092 331.153 175.227C331.384 175.359 331.651 175.425 331.956 175.425C332.154 175.425 332.333 175.397 332.493 175.342C332.654 175.284 332.794 175.199 332.911 175.086C333.028 174.971 333.119 174.828 333.183 174.658L333.912 174.862C333.835 175.109 333.706 175.327 333.525 175.514C333.344 175.7 333.12 175.844 332.854 175.949C332.587 176.051 332.288 176.102 331.956 176.102ZM340.428 169.455V176H339.661L336.094 170.861H336.031V176H335.238V169.455H336.005L339.585 174.607H339.648V169.455H340.428ZM343.97 176.102C343.497 176.102 343.089 175.998 342.746 175.789C342.405 175.578 342.142 175.284 341.957 174.907C341.774 174.528 341.682 174.087 341.682 173.584C341.682 173.081 341.774 172.638 341.957 172.254C342.142 171.869 342.4 171.568 342.73 171.353C343.063 171.136 343.45 171.027 343.894 171.027C344.149 171.027 344.402 171.07 344.651 171.155C344.9 171.24 345.127 171.379 345.332 171.57C345.536 171.76 345.699 172.011 345.821 172.325C345.942 172.638 346.003 173.023 346.003 173.482V173.801H342.219V173.149H345.236C345.236 172.872 345.18 172.625 345.07 172.408C344.961 172.19 344.805 172.019 344.603 171.893C344.403 171.767 344.166 171.705 343.894 171.705C343.593 171.705 343.333 171.779 343.114 171.928C342.896 172.075 342.729 172.267 342.612 172.504C342.495 172.74 342.436 172.994 342.436 173.264V173.699C342.436 174.07 342.5 174.384 342.628 174.642C342.758 174.897 342.938 175.092 343.168 175.227C343.398 175.359 343.666 175.425 343.97 175.425C344.168 175.425 344.347 175.397 344.507 175.342C344.669 175.284 344.809 175.199 344.926 175.086C345.043 174.971 345.134 174.828 345.198 174.658L345.926 174.862C345.85 175.109 345.721 175.327 345.54 175.514C345.358 175.7 345.135 175.844 344.868 175.949C344.602 176.051 344.303 176.102 343.97 176.102ZM349.285 171.091V171.73H346.741V171.091H349.285ZM347.483 169.915H348.237V174.594C348.237 174.807 348.268 174.967 348.33 175.073C348.394 175.178 348.475 175.248 348.573 175.284C348.673 175.318 348.778 175.335 348.889 175.335C348.972 175.335 349.04 175.331 349.093 175.322C349.147 175.312 349.189 175.303 349.221 175.297L349.375 175.974C349.324 175.994 349.252 176.013 349.161 176.032C349.069 176.053 348.953 176.064 348.812 176.064C348.599 176.064 348.39 176.018 348.186 175.926C347.983 175.835 347.815 175.695 347.681 175.508C347.549 175.32 347.483 175.084 347.483 174.798V169.915ZM351.532 176L350.036 171.091H350.829L351.89 174.849H351.941L352.989 171.091H353.795L354.83 174.837H354.881L355.943 171.091H356.735L355.239 176H354.498L353.424 172.229H353.347L352.274 176H351.532ZM359.56 176.102C359.116 176.102 358.728 175.997 358.393 175.786C358.061 175.575 357.801 175.28 357.613 174.901C357.428 174.521 357.335 174.078 357.335 173.571C357.335 173.06 357.428 172.613 357.613 172.232C357.801 171.85 358.061 171.554 358.393 171.343C358.728 171.132 359.116 171.027 359.56 171.027C360.003 171.027 360.391 171.132 360.723 171.343C361.058 171.554 361.317 171.85 361.503 172.232C361.69 172.613 361.784 173.06 361.784 173.571C361.784 174.078 361.69 174.521 361.503 174.901C361.317 175.28 361.058 175.575 360.723 175.786C360.391 175.997 360.003 176.102 359.56 176.102ZM359.56 175.425C359.896 175.425 360.173 175.338 360.391 175.166C360.608 174.993 360.769 174.766 360.873 174.485C360.978 174.204 361.03 173.899 361.03 173.571C361.03 173.243 360.978 172.937 360.873 172.654C360.769 172.37 360.608 172.141 360.391 171.967C360.173 171.792 359.896 171.705 359.56 171.705C359.223 171.705 358.946 171.792 358.729 171.967C358.511 172.141 358.35 172.37 358.246 172.654C358.142 172.937 358.089 173.243 358.089 173.571C358.089 173.899 358.142 174.204 358.246 174.485C358.35 174.766 358.511 174.993 358.729 175.166C358.946 175.338 359.223 175.425 359.56 175.425ZM362.935 176V171.091H363.664V171.832H363.715C363.805 171.589 363.967 171.392 364.201 171.241C364.435 171.09 364.7 171.014 364.994 171.014C365.049 171.014 365.118 171.015 365.201 171.017C365.285 171.02 365.347 171.023 365.39 171.027V171.794C365.364 171.788 365.306 171.778 365.214 171.765C365.125 171.75 365.03 171.743 364.93 171.743C364.691 171.743 364.478 171.793 364.291 171.893C364.105 171.991 363.958 172.127 363.85 172.302C363.743 172.475 363.69 172.672 363.69 172.893V176H362.935ZM366.987 174.21L366.974 173.277H367.128L369.276 171.091H370.209L367.92 173.405H367.857L366.987 174.21ZM366.284 176V169.455H367.038V176H366.284ZM369.403 176L367.486 173.571L368.023 173.047L370.362 176H369.403ZM373.813 176V169.455H376.025C376.536 169.455 376.956 169.542 377.284 169.717C377.612 169.889 377.855 170.127 378.013 170.429C378.17 170.732 378.249 171.076 378.249 171.462C378.249 171.847 378.17 172.189 378.013 172.488C377.855 172.786 377.613 173.02 377.287 173.191C376.961 173.359 376.545 173.443 376.038 173.443H374.248V172.727H376.012C376.361 172.727 376.643 172.676 376.856 172.574C377.071 172.472 377.226 172.327 377.322 172.139C377.42 171.95 377.469 171.724 377.469 171.462C377.469 171.2 377.42 170.971 377.322 170.775C377.224 170.578 377.068 170.427 376.853 170.321C376.637 170.212 376.353 170.158 375.999 170.158H374.606V176H373.813ZM376.894 173.06L378.505 176H377.584L375.999 173.06H376.894ZM379.212 170.158V169.455H384.121V170.158H382.063V176H381.27V170.158H379.212ZM390.595 172.727C390.595 173.418 390.47 174.014 390.221 174.517C389.971 175.02 389.629 175.408 389.195 175.68C388.76 175.953 388.264 176.089 387.705 176.089C387.147 176.089 386.651 175.953 386.216 175.68C385.781 175.408 385.439 175.02 385.19 174.517C384.941 174.014 384.816 173.418 384.816 172.727C384.816 172.037 384.941 171.44 385.19 170.938C385.439 170.435 385.781 170.047 386.216 169.774C386.651 169.501 387.147 169.365 387.705 169.365C388.264 169.365 388.76 169.501 389.195 169.774C389.629 170.047 389.971 170.435 390.221 170.938C390.47 171.44 390.595 172.037 390.595 172.727ZM389.828 172.727C389.828 172.161 389.733 171.682 389.543 171.292C389.356 170.902 389.101 170.607 388.779 170.407C388.46 170.207 388.102 170.107 387.705 170.107C387.309 170.107 386.95 170.207 386.628 170.407C386.309 170.607 386.054 170.902 385.865 171.292C385.677 171.682 385.583 172.161 385.583 172.727C385.583 173.294 385.677 173.772 385.865 174.162C386.054 174.552 386.309 174.847 386.628 175.048C386.95 175.248 387.309 175.348 387.705 175.348C388.102 175.348 388.46 175.248 388.779 175.048C389.101 174.847 389.356 174.552 389.543 174.162C389.733 173.772 389.828 173.294 389.828 172.727ZM395.507 171.091C395.469 170.767 395.313 170.516 395.04 170.337C394.768 170.158 394.433 170.068 394.037 170.068C393.747 170.068 393.493 170.115 393.276 170.209C393.061 170.303 392.893 170.431 392.771 170.596C392.652 170.76 392.592 170.946 392.592 171.155C392.592 171.33 392.634 171.48 392.717 171.605C392.802 171.729 392.911 171.832 393.043 171.915C393.175 171.996 393.313 172.064 393.458 172.117C393.603 172.168 393.736 172.21 393.858 172.241L394.523 172.42C394.693 172.465 394.883 172.527 395.091 172.606C395.302 172.685 395.504 172.792 395.695 172.929C395.889 173.063 396.049 173.235 396.175 173.446C396.301 173.657 396.363 173.916 396.363 174.223C396.363 174.577 396.271 174.896 396.085 175.182C395.902 175.467 395.634 175.694 395.28 175.863C394.928 176.031 394.501 176.115 393.998 176.115C393.53 176.115 393.124 176.039 392.781 175.888C392.44 175.737 392.171 175.526 391.975 175.255C391.781 174.985 391.672 174.67 391.646 174.312H392.464C392.486 174.56 392.569 174.764 392.714 174.926C392.861 175.086 393.046 175.205 393.27 175.284C393.496 175.361 393.738 175.399 393.998 175.399C394.301 175.399 394.573 175.35 394.813 175.252C395.054 175.152 395.245 175.013 395.385 174.837C395.526 174.658 395.596 174.449 395.596 174.21C395.596 173.993 395.536 173.816 395.414 173.68C395.293 173.543 395.133 173.433 394.935 173.347C394.737 173.262 394.523 173.187 394.292 173.124L393.487 172.893C392.976 172.746 392.571 172.537 392.273 172.264C391.974 171.991 391.825 171.634 391.825 171.193C391.825 170.827 391.924 170.507 392.122 170.234C392.323 169.96 392.591 169.746 392.928 169.595C393.267 169.442 393.645 169.365 394.062 169.365C394.484 169.365 394.859 169.441 395.187 169.592C395.515 169.741 395.775 169.946 395.967 170.206C396.161 170.466 396.263 170.761 396.274 171.091H395.507ZM400.096 177.841V171.091H400.824V171.871H400.914C400.969 171.786 401.046 171.677 401.144 171.545C401.244 171.411 401.387 171.291 401.572 171.187C401.76 171.08 402.013 171.027 402.333 171.027C402.746 171.027 403.111 171.13 403.426 171.337C403.741 171.544 403.987 171.837 404.164 172.216C404.341 172.595 404.429 173.043 404.429 173.558C404.429 174.078 404.341 174.529 404.164 174.91C403.987 175.289 403.742 175.583 403.429 175.792C403.116 175.999 402.755 176.102 402.346 176.102C402.03 176.102 401.778 176.05 401.588 175.946C401.399 175.839 401.253 175.719 401.15 175.585C401.048 175.448 400.969 175.335 400.914 175.246H400.85V177.841H400.096ZM400.837 173.545C400.837 173.916 400.891 174.243 401 174.527C401.109 174.808 401.267 175.028 401.476 175.188C401.685 175.346 401.941 175.425 402.243 175.425C402.559 175.425 402.822 175.342 403.033 175.175C403.246 175.007 403.406 174.781 403.512 174.498C403.621 174.212 403.675 173.895 403.675 173.545C403.675 173.2 403.622 172.889 403.515 172.612C403.411 172.333 403.252 172.113 403.039 171.951C402.828 171.787 402.563 171.705 402.243 171.705C401.937 171.705 401.679 171.782 401.47 171.938C401.261 172.091 401.103 172.306 400.997 172.583C400.89 172.858 400.837 173.179 400.837 173.545ZM407.574 176.102C407.131 176.102 406.742 175.997 406.408 175.786C406.075 175.575 405.815 175.28 405.628 174.901C405.443 174.521 405.35 174.078 405.35 173.571C405.35 173.06 405.443 172.613 405.628 172.232C405.815 171.85 406.075 171.554 406.408 171.343C406.742 171.132 407.131 171.027 407.574 171.027C408.017 171.027 408.405 171.132 408.738 171.343C409.072 171.554 409.332 171.85 409.517 172.232C409.705 172.613 409.799 173.06 409.799 173.571C409.799 174.078 409.705 174.521 409.517 174.901C409.332 175.28 409.072 175.575 408.738 175.786C408.405 175.997 408.017 176.102 407.574 176.102ZM407.574 175.425C407.911 175.425 408.188 175.338 408.405 175.166C408.623 174.993 408.783 174.766 408.888 174.485C408.992 174.204 409.044 173.899 409.044 173.571C409.044 173.243 408.992 172.937 408.888 172.654C408.783 172.37 408.623 172.141 408.405 171.967C408.188 171.792 407.911 171.705 407.574 171.705C407.238 171.705 406.961 171.792 406.743 171.967C406.526 172.141 406.365 172.37 406.261 172.654C406.156 172.937 406.104 173.243 406.104 173.571C406.104 173.899 406.156 174.204 406.261 174.485C406.365 174.766 406.526 174.993 406.743 175.166C406.961 175.338 407.238 175.425 407.574 175.425ZM410.95 176V171.091H411.679V171.832H411.73C411.819 171.589 411.981 171.392 412.216 171.241C412.45 171.09 412.714 171.014 413.008 171.014C413.064 171.014 413.133 171.015 413.216 171.017C413.299 171.02 413.362 171.023 413.405 171.027V171.794C413.379 171.788 413.32 171.778 413.229 171.765C413.139 171.75 413.045 171.743 412.944 171.743C412.706 171.743 412.493 171.793 412.305 171.893C412.12 171.991 411.973 172.127 411.864 172.302C411.758 172.475 411.704 172.672 411.704 172.893V176H410.95ZM416.741 171.091V171.73H414.197V171.091H416.741ZM414.939 169.915H415.693V174.594C415.693 174.807 415.724 174.967 415.786 175.073C415.85 175.178 415.931 175.248 416.029 175.284C416.129 175.318 416.234 175.335 416.345 175.335C416.428 175.335 416.496 175.331 416.55 175.322C416.603 175.312 416.645 175.303 416.677 175.297L416.831 175.974C416.78 175.994 416.708 176.013 416.617 176.032C416.525 176.053 416.409 176.064 416.268 176.064C416.055 176.064 415.846 176.018 415.642 175.926C415.439 175.835 415.271 175.695 415.137 175.508C415.005 175.32 414.939 175.084 414.939 174.798V169.915ZM421.161 169.455V176H420.407V169.455H421.161ZM423.987 176.115C423.676 176.115 423.394 176.056 423.141 175.939C422.887 175.82 422.686 175.648 422.536 175.425C422.387 175.199 422.313 174.926 422.313 174.607C422.313 174.325 422.368 174.097 422.479 173.923C422.59 173.746 422.738 173.607 422.923 173.507C423.109 173.407 423.313 173.332 423.537 173.283C423.763 173.232 423.99 173.192 424.218 173.162C424.516 173.124 424.758 173.095 424.943 173.076C425.131 173.054 425.267 173.019 425.352 172.97C425.44 172.921 425.483 172.836 425.483 172.714V172.689C425.483 172.374 425.397 172.129 425.224 171.954C425.054 171.779 424.795 171.692 424.448 171.692C424.088 171.692 423.805 171.771 423.601 171.928C423.396 172.086 423.252 172.254 423.169 172.433L422.453 172.178C422.581 171.879 422.752 171.647 422.965 171.481C423.18 171.312 423.414 171.195 423.668 171.129C423.924 171.061 424.175 171.027 424.422 171.027C424.58 171.027 424.761 171.046 424.965 171.085C425.172 171.121 425.371 171.196 425.563 171.311C425.757 171.426 425.918 171.6 426.046 171.832C426.174 172.065 426.237 172.376 426.237 172.766V176H425.483V175.335H425.445C425.394 175.442 425.309 175.556 425.189 175.677C425.07 175.799 424.911 175.902 424.713 175.987C424.515 176.072 424.273 176.115 423.987 176.115ZM424.103 175.438C424.401 175.438 424.652 175.379 424.857 175.262C425.063 175.145 425.219 174.993 425.323 174.808C425.43 174.623 425.483 174.428 425.483 174.223V173.533C425.451 173.571 425.381 173.606 425.272 173.638C425.166 173.668 425.042 173.695 424.902 173.718C424.763 173.739 424.628 173.759 424.496 173.776C424.366 173.79 424.26 173.803 424.179 173.814C423.983 173.839 423.8 173.881 423.63 173.939C423.461 173.994 423.325 174.078 423.22 174.191C423.118 174.302 423.067 174.453 423.067 174.645C423.067 174.907 423.164 175.105 423.358 175.239C423.554 175.371 423.802 175.438 424.103 175.438ZM427.924 177.841C427.796 177.841 427.682 177.83 427.582 177.809C427.482 177.79 427.413 177.771 427.374 177.751L427.566 177.087C427.749 177.134 427.911 177.151 428.052 177.138C428.193 177.125 428.317 177.062 428.426 176.949C428.537 176.838 428.638 176.658 428.73 176.409L428.87 176.026L427.055 171.091H427.873L429.228 175.003H429.279L430.634 171.091H431.453L429.369 176.716C429.275 176.969 429.159 177.179 429.02 177.346C428.882 177.514 428.721 177.638 428.538 177.719C428.357 177.8 428.152 177.841 427.924 177.841ZM434.331 176.102C433.858 176.102 433.45 175.998 433.107 175.789C432.766 175.578 432.502 175.284 432.317 174.907C432.134 174.528 432.042 174.087 432.042 173.584C432.042 173.081 432.134 172.638 432.317 172.254C432.502 171.869 432.76 171.568 433.091 171.353C433.423 171.136 433.811 171.027 434.254 171.027C434.51 171.027 434.762 171.07 435.011 171.155C435.261 171.24 435.488 171.379 435.692 171.57C435.897 171.76 436.06 172.011 436.181 172.325C436.303 172.638 436.363 173.023 436.363 173.482V173.801H432.579V173.149H435.596C435.596 172.872 435.541 172.625 435.43 172.408C435.321 172.19 435.166 172.019 434.963 171.893C434.763 171.767 434.527 171.705 434.254 171.705C433.953 171.705 433.694 171.779 433.474 171.928C433.257 172.075 433.089 172.267 432.972 172.504C432.855 172.74 432.797 172.994 432.797 173.264V173.699C432.797 174.07 432.86 174.384 432.988 174.642C433.118 174.897 433.298 175.092 433.528 175.227C433.759 175.359 434.026 175.425 434.331 175.425C434.529 175.425 434.708 175.397 434.868 175.342C435.029 175.284 435.169 175.199 435.286 175.086C435.403 174.971 435.494 174.828 435.558 174.658L436.287 174.862C436.21 175.109 436.081 175.327 435.9 175.514C435.719 175.7 435.495 175.844 435.229 175.949C434.962 176.051 434.663 176.102 434.331 176.102ZM437.511 176V171.091H438.239V171.832H438.29C438.38 171.589 438.542 171.392 438.776 171.241C439.011 171.09 439.275 171.014 439.569 171.014C439.624 171.014 439.694 171.015 439.777 171.017C439.86 171.02 439.923 171.023 439.965 171.027V171.794C439.94 171.788 439.881 171.778 439.789 171.765C439.7 171.75 439.605 171.743 439.505 171.743C439.266 171.743 439.053 171.793 438.866 171.893C438.68 171.991 438.533 172.127 438.425 172.302C438.318 172.475 438.265 172.672 438.265 172.893V176H437.511Z" fill="white"/>
<path d="M314.99 97V88.2727H316.047V92.1591H320.701V88.2727H321.757V97H320.701V93.0966H316.047V97H314.99ZM327.862 94.3239V90.4545H328.868V97H327.862V95.892H327.794C327.64 96.2244 327.402 96.5071 327.078 96.7401C326.754 96.9702 326.345 97.0852 325.85 97.0852C325.441 97.0852 325.078 96.9957 324.76 96.8168C324.441 96.6349 324.191 96.3622 324.01 95.9986C323.828 95.6321 323.737 95.1705 323.737 94.6136V90.4545H324.743V94.5455C324.743 95.0227 324.876 95.4034 325.143 95.6875C325.413 95.9716 325.757 96.1136 326.174 96.1136C326.424 96.1136 326.679 96.0497 326.937 95.9219C327.199 95.794 327.417 95.598 327.593 95.3338C327.772 95.0696 327.862 94.733 327.862 94.3239ZM330.846 97V88.2727H331.852V91.4943H331.937C332.011 91.3807 332.113 91.2358 332.244 91.0597C332.377 90.8807 332.567 90.7216 332.815 90.5824C333.065 90.4403 333.403 90.3693 333.829 90.3693C334.38 90.3693 334.866 90.5071 335.286 90.7827C335.707 91.0582 336.035 91.4489 336.271 91.9545C336.506 92.4602 336.624 93.0568 336.624 93.7443C336.624 94.4375 336.506 95.0384 336.271 95.5469C336.035 96.0526 335.708 96.4446 335.29 96.723C334.873 96.9986 334.391 97.1364 333.846 97.1364C333.425 97.1364 333.089 97.0668 332.836 96.9276C332.583 96.7855 332.388 96.625 332.252 96.446C332.116 96.2642 332.011 96.1136 331.937 95.9943H331.817V97H330.846ZM331.835 93.7273C331.835 94.2216 331.907 94.6577 332.052 95.0355C332.197 95.4105 332.408 95.7045 332.687 95.9176C332.965 96.1278 333.306 96.233 333.71 96.233C334.13 96.233 334.481 96.1222 334.762 95.9006C335.046 95.6761 335.259 95.375 335.401 94.9972C335.546 94.6165 335.619 94.1932 335.619 93.7273C335.619 93.267 335.548 92.8523 335.406 92.483C335.266 92.1108 335.055 91.8168 334.771 91.6009C334.489 91.3821 334.136 91.2727 333.71 91.2727C333.3 91.2727 332.957 91.3764 332.678 91.5838C332.4 91.7884 332.19 92.0753 332.048 92.4446C331.906 92.8111 331.835 93.2386 331.835 93.7273ZM338.299 97V88.2727H339.305V91.4943H339.39C339.464 91.3807 339.566 91.2358 339.697 91.0597C339.83 90.8807 340.021 90.7216 340.268 90.5824C340.518 90.4403 340.856 90.3693 341.282 90.3693C341.833 90.3693 342.319 90.5071 342.739 90.7827C343.16 91.0582 343.488 91.4489 343.724 91.9545C343.96 92.4602 344.077 93.0568 344.077 93.7443C344.077 94.4375 343.96 95.0384 343.724 95.5469C343.488 96.0526 343.161 96.4446 342.744 96.723C342.326 96.9986 341.844 97.1364 341.299 97.1364C340.879 97.1364 340.542 97.0668 340.289 96.9276C340.036 96.7855 339.842 96.625 339.705 96.446C339.569 96.2642 339.464 96.1136 339.39 95.9943H339.271V97H338.299ZM339.288 93.7273C339.288 94.2216 339.36 94.6577 339.505 95.0355C339.65 95.4105 339.862 95.7045 340.14 95.9176C340.418 96.1278 340.759 96.233 341.163 96.233C341.583 96.233 341.934 96.1222 342.215 95.9006C342.499 95.6761 342.712 95.375 342.854 94.9972C342.999 94.6165 343.072 94.1932 343.072 93.7273C343.072 93.267 343.001 92.8523 342.859 92.483C342.719 92.1108 342.508 91.8168 342.224 91.6009C341.942 91.3821 341.589 91.2727 341.163 91.2727C340.754 91.2727 340.41 91.3764 340.131 91.5838C339.853 91.7884 339.643 92.0753 339.501 92.4446C339.359 92.8111 339.288 93.2386 339.288 93.7273ZM346.621 88.2727V97H345.616V88.2727H346.621ZM351.208 97.1364C350.577 97.1364 350.033 96.9972 349.576 96.7188C349.121 96.4375 348.77 96.0455 348.523 95.5426C348.279 95.0369 348.157 94.4489 348.157 93.7784C348.157 93.108 348.279 92.517 348.523 92.0057C348.77 91.4915 349.114 91.0909 349.554 90.804C349.998 90.5142 350.515 90.3693 351.105 90.3693C351.446 90.3693 351.783 90.4261 352.115 90.5398C352.448 90.6534 352.75 90.8381 353.023 91.0938C353.296 91.3466 353.513 91.6818 353.675 92.0994C353.837 92.517 353.918 93.0312 353.918 93.642V94.0682H348.873V93.1989H352.895C352.895 92.8295 352.821 92.5 352.674 92.2102C352.529 91.9205 352.321 91.6918 352.051 91.5241C351.784 91.3565 351.469 91.2727 351.105 91.2727C350.705 91.2727 350.358 91.3722 350.066 91.571C349.776 91.767 349.553 92.0227 349.397 92.3381C349.24 92.6534 349.162 92.9915 349.162 93.3523V93.9318C349.162 94.4261 349.248 94.8452 349.418 95.1889C349.591 95.5298 349.831 95.7898 350.138 95.9688C350.445 96.1449 350.801 96.233 351.208 96.233C351.472 96.233 351.711 96.196 351.924 96.1222C352.14 96.0455 352.326 95.9318 352.482 95.7812C352.638 95.6278 352.759 95.4375 352.844 95.2102L353.816 95.483C353.713 95.8125 353.542 96.1023 353.3 96.3523C353.059 96.5994 352.76 96.7926 352.405 96.9318C352.05 97.0682 351.651 97.1364 351.208 97.1364ZM362.505 88.2727V97H361.482L356.726 90.1477H356.641V97H355.584V88.2727H356.607L361.38 95.142H361.465V88.2727H362.505ZM367.227 97.1364C366.597 97.1364 366.053 96.9972 365.595 96.7188C365.141 96.4375 364.79 96.0455 364.543 95.5426C364.298 95.0369 364.176 94.4489 364.176 93.7784C364.176 93.108 364.298 92.517 364.543 92.0057C364.79 91.4915 365.134 91.0909 365.574 90.804C366.017 90.5142 366.534 90.3693 367.125 90.3693C367.466 90.3693 367.803 90.4261 368.135 90.5398C368.467 90.6534 368.77 90.8381 369.043 91.0938C369.315 91.3466 369.533 91.6818 369.695 92.0994C369.857 92.517 369.938 93.0312 369.938 93.642V94.0682H364.892V93.1989H368.915C368.915 92.8295 368.841 92.5 368.693 92.2102C368.548 91.9205 368.341 91.6918 368.071 91.5241C367.804 91.3565 367.489 91.2727 367.125 91.2727C366.724 91.2727 366.378 91.3722 366.085 91.571C365.795 91.767 365.572 92.0227 365.416 92.3381C365.26 92.6534 365.182 92.9915 365.182 93.3523V93.9318C365.182 94.4261 365.267 94.8452 365.438 95.1889C365.611 95.5298 365.851 95.7898 366.158 95.9688C366.464 96.1449 366.821 96.233 367.227 96.233C367.491 96.233 367.73 96.196 367.943 96.1222C368.159 96.0455 368.345 95.9318 368.501 95.7812C368.658 95.6278 368.778 95.4375 368.864 95.2102L369.835 95.483C369.733 95.8125 369.561 96.1023 369.32 96.3523C369.078 96.5994 368.78 96.7926 368.425 96.9318C368.07 97.0682 367.67 97.1364 367.227 97.1364ZM374.314 90.4545V91.3068H370.922V90.4545H374.314ZM371.911 88.8864H372.916V95.125C372.916 95.4091 372.957 95.6222 373.04 95.7642C373.125 95.9034 373.233 95.9972 373.364 96.0455C373.497 96.0909 373.638 96.1136 373.786 96.1136C373.896 96.1136 373.987 96.108 374.058 96.0966C374.129 96.0824 374.186 96.071 374.229 96.0625L374.433 96.9659C374.365 96.9915 374.27 97.017 374.148 97.0426C374.026 97.071 373.871 97.0852 373.683 97.0852C373.399 97.0852 373.121 97.0241 372.848 96.902C372.578 96.7798 372.354 96.5938 372.175 96.3438C371.999 96.0938 371.911 95.7784 371.911 95.3977V88.8864ZM377.31 97L375.315 90.4545H376.372L377.787 95.4659H377.855L379.253 90.4545H380.327L381.707 95.4489H381.776L383.19 90.4545H384.247L382.253 97H381.264L379.832 91.9716H379.73L378.298 97H377.31ZM388.013 97.1364C387.422 97.1364 386.904 96.9957 386.458 96.7145C386.015 96.4332 385.668 96.0398 385.418 95.5341C385.171 95.0284 385.047 94.4375 385.047 93.7614C385.047 93.0795 385.171 92.4844 385.418 91.9759C385.668 91.4673 386.015 91.0724 386.458 90.7912C386.904 90.5099 387.422 90.3693 388.013 90.3693C388.604 90.3693 389.121 90.5099 389.564 90.7912C390.01 91.0724 390.357 91.4673 390.604 91.9759C390.854 92.4844 390.979 93.0795 390.979 93.7614C390.979 94.4375 390.854 95.0284 390.604 95.5341C390.357 96.0398 390.01 96.4332 389.564 96.7145C389.121 96.9957 388.604 97.1364 388.013 97.1364ZM388.013 96.233C388.462 96.233 388.831 96.1179 389.121 95.8878C389.411 95.6577 389.625 95.3551 389.765 94.9801C389.904 94.6051 389.973 94.1989 389.973 93.7614C389.973 93.3239 389.904 92.9162 389.765 92.5384C389.625 92.1605 389.411 91.8551 389.121 91.6222C388.831 91.3892 388.462 91.2727 388.013 91.2727C387.564 91.2727 387.195 91.3892 386.905 91.6222C386.615 91.8551 386.401 92.1605 386.262 92.5384C386.123 92.9162 386.053 93.3239 386.053 93.7614C386.053 94.1989 386.123 94.6051 386.262 94.9801C386.401 95.3551 386.615 95.6577 386.905 95.8878C387.195 96.1179 387.564 96.233 388.013 96.233ZM392.514 97V90.4545H393.486V91.4432H393.554C393.673 91.1193 393.889 90.8565 394.202 90.6548C394.514 90.4531 394.866 90.3523 395.259 90.3523C395.332 90.3523 395.425 90.3537 395.536 90.3565C395.646 90.3594 395.73 90.3636 395.787 90.3693V91.392C395.753 91.3835 395.675 91.3707 395.553 91.3537C395.433 91.3338 395.307 91.3239 395.173 91.3239C394.855 91.3239 394.571 91.3906 394.321 91.5241C394.074 91.6548 393.878 91.8366 393.733 92.0696C393.591 92.2997 393.52 92.5625 393.52 92.858V97H392.514ZM397.917 94.6136L397.9 93.3693H398.104L400.968 90.4545H402.212L399.161 93.5398H399.076L397.917 94.6136ZM396.979 97V88.2727H397.985V97H396.979ZM401.138 97L398.581 93.7614L399.297 93.0625L402.417 97H401.138ZM411.79 90.4545C411.739 90.0227 411.532 89.6875 411.168 89.4489C410.805 89.2102 410.359 89.0909 409.83 89.0909C409.444 89.0909 409.106 89.1534 408.816 89.2784C408.529 89.4034 408.305 89.5753 408.143 89.794C407.984 90.0128 407.904 90.2614 407.904 90.5398C407.904 90.7727 407.96 90.973 408.07 91.1406C408.184 91.3054 408.329 91.4432 408.505 91.554C408.681 91.6619 408.866 91.7514 409.059 91.8224C409.252 91.8906 409.43 91.946 409.592 91.9886L410.478 92.2273C410.705 92.2869 410.958 92.3693 411.237 92.4744C411.518 92.5795 411.786 92.723 412.042 92.9048C412.3 93.0838 412.513 93.3139 412.681 93.5952C412.849 93.8764 412.933 94.2216 412.933 94.6307C412.933 95.1023 412.809 95.5284 412.562 95.9091C412.317 96.2898 411.96 96.5923 411.488 96.8168C411.019 97.0412 410.45 97.1534 409.779 97.1534C409.154 97.1534 408.613 97.0526 408.156 96.8509C407.701 96.6491 407.343 96.3679 407.082 96.0071C406.823 95.6463 406.677 95.2273 406.643 94.75H407.734C407.762 95.0795 407.873 95.3523 408.066 95.5682C408.262 95.7812 408.509 95.9403 408.808 96.0455C409.109 96.1477 409.433 96.1989 409.779 96.1989C410.183 96.1989 410.545 96.1335 410.866 96.0028C411.187 95.8693 411.441 95.6847 411.629 95.4489C411.816 95.2102 411.91 94.9318 411.91 94.6136C411.91 94.3239 411.829 94.0881 411.667 93.9062C411.505 93.7244 411.292 93.5767 411.028 93.4631C410.763 93.3494 410.478 93.25 410.171 93.1648L409.097 92.858C408.415 92.6619 407.876 92.3821 407.478 92.0185C407.08 91.6548 406.881 91.179 406.881 90.5909C406.881 90.1023 407.013 89.6761 407.278 89.3125C407.545 88.946 407.903 88.6619 408.352 88.4602C408.803 88.2557 409.308 88.1534 409.864 88.1534C410.427 88.1534 410.927 88.2543 411.364 88.456C411.802 88.6548 412.148 88.9276 412.404 89.2741C412.663 89.6207 412.799 90.0142 412.813 90.4545H411.79ZM417.363 97H414.67V88.2727H417.483C418.329 88.2727 419.054 88.4474 419.656 88.7969C420.258 89.1435 420.72 89.642 421.041 90.2926C421.362 90.9403 421.522 91.7159 421.522 92.6193C421.522 93.5284 421.36 94.3111 421.037 94.9673C420.713 95.6207 420.241 96.1236 419.622 96.4759C419.002 96.8253 418.25 97 417.363 97ZM415.727 96.0625H417.295C418.017 96.0625 418.615 95.9233 419.089 95.6449C419.564 95.3665 419.917 94.9702 420.15 94.456C420.383 93.9418 420.5 93.3295 420.5 92.6193C420.5 91.9148 420.385 91.3082 420.154 90.7997C419.924 90.2884 419.581 89.8963 419.123 89.6236C418.666 89.348 418.096 89.2102 417.414 89.2102H415.727V96.0625ZM423.295 97V88.2727H424.352V92.6023H424.454L428.375 88.2727H429.755L426.091 92.2102L429.755 97H428.477L425.443 92.9432L424.352 94.1705V97H423.295Z" fill="white"/>
<rect x="4.5" y="278.5" width="505" height="46" rx="7.5" fill="#222265" stroke="#3A3A8B"/>
<path d="M230.057 306V297.273H231.114V301.159H235.767V297.273H236.824V306H235.767V302.097H231.114V306H230.057ZM240.729 306.153C240.315 306.153 239.938 306.075 239.6 305.919C239.262 305.76 238.994 305.531 238.795 305.233C238.596 304.932 238.496 304.568 238.496 304.142C238.496 303.767 238.57 303.463 238.718 303.23C238.866 302.994 239.063 302.81 239.31 302.676C239.558 302.543 239.83 302.443 240.129 302.378C240.43 302.31 240.732 302.256 241.036 302.216C241.434 302.165 241.756 302.126 242.004 302.101C242.254 302.072 242.435 302.026 242.549 301.96C242.665 301.895 242.724 301.781 242.724 301.619V301.585C242.724 301.165 242.609 300.838 242.379 300.605C242.151 300.372 241.806 300.256 241.343 300.256C240.863 300.256 240.487 300.361 240.214 300.571C239.941 300.781 239.749 301.006 239.638 301.244L238.684 300.903C238.854 300.506 239.082 300.196 239.366 299.974C239.653 299.75 239.965 299.594 240.303 299.506C240.644 299.415 240.979 299.369 241.309 299.369C241.519 299.369 241.761 299.395 242.033 299.446C242.309 299.494 242.575 299.595 242.83 299.749C243.089 299.902 243.303 300.134 243.474 300.443C243.644 300.753 243.729 301.168 243.729 301.688V306H242.724V305.114H242.673C242.604 305.256 242.491 305.408 242.332 305.57C242.173 305.732 241.961 305.869 241.697 305.983C241.433 306.097 241.11 306.153 240.729 306.153ZM240.883 305.25C241.281 305.25 241.616 305.172 241.888 305.016C242.164 304.859 242.371 304.658 242.511 304.411C242.653 304.163 242.724 303.903 242.724 303.631V302.71C242.681 302.761 242.587 302.808 242.442 302.851C242.3 302.891 242.136 302.926 241.948 302.957C241.763 302.986 241.583 303.011 241.407 303.034C241.234 303.054 241.093 303.071 240.985 303.085C240.724 303.119 240.479 303.175 240.252 303.251C240.028 303.325 239.846 303.437 239.707 303.588C239.57 303.736 239.502 303.937 239.502 304.193C239.502 304.543 239.631 304.807 239.89 304.986C240.151 305.162 240.482 305.25 240.883 305.25ZM245.565 306V299.455H246.537V300.443H246.605C246.724 300.119 246.94 299.857 247.252 299.655C247.565 299.453 247.917 299.352 248.309 299.352C248.383 299.352 248.475 299.354 248.586 299.357C248.697 299.359 248.781 299.364 248.838 299.369V300.392C248.804 300.384 248.725 300.371 248.603 300.354C248.484 300.334 248.358 300.324 248.224 300.324C247.906 300.324 247.622 300.391 247.372 300.524C247.125 300.655 246.929 300.837 246.784 301.07C246.642 301.3 246.571 301.562 246.571 301.858V306H245.565ZM252.302 306.136C251.757 306.136 251.275 305.999 250.858 305.723C250.44 305.445 250.113 305.053 249.877 304.547C249.642 304.038 249.524 303.438 249.524 302.744C249.524 302.057 249.642 301.46 249.877 300.955C250.113 300.449 250.441 300.058 250.862 299.783C251.282 299.507 251.768 299.369 252.319 299.369C252.745 299.369 253.082 299.44 253.329 299.582C253.579 299.722 253.77 299.881 253.9 300.06C254.034 300.236 254.137 300.381 254.211 300.494H254.297V297.273H255.302V306H254.331V304.994H254.211C254.137 305.114 254.032 305.264 253.896 305.446C253.76 305.625 253.565 305.786 253.312 305.928C253.059 306.067 252.723 306.136 252.302 306.136ZM252.439 305.233C252.842 305.233 253.183 305.128 253.461 304.918C253.74 304.705 253.951 304.411 254.096 304.036C254.241 303.658 254.314 303.222 254.314 302.727C254.314 302.239 254.243 301.811 254.1 301.445C253.958 301.075 253.748 300.788 253.47 300.584C253.191 300.376 252.848 300.273 252.439 300.273C252.012 300.273 251.657 300.382 251.373 300.601C251.092 300.817 250.88 301.111 250.738 301.483C250.599 301.852 250.529 302.267 250.529 302.727C250.529 303.193 250.6 303.616 250.743 303.997C250.887 304.375 251.1 304.676 251.382 304.901C251.666 305.122 252.018 305.233 252.439 305.233ZM258.767 306L256.772 299.455H257.829L259.244 304.466H259.312L260.71 299.455H261.784L263.164 304.449H263.233L264.647 299.455H265.704L263.71 306H262.721L261.289 300.972H261.187L259.755 306H258.767ZM268.96 306.153C268.545 306.153 268.169 306.075 267.831 305.919C267.493 305.76 267.224 305.531 267.025 305.233C266.826 304.932 266.727 304.568 266.727 304.142C266.727 303.767 266.801 303.463 266.949 303.23C267.096 302.994 267.294 302.81 267.541 302.676C267.788 302.543 268.061 302.443 268.359 302.378C268.66 302.31 268.963 302.256 269.267 302.216C269.664 302.165 269.987 302.126 270.234 302.101C270.484 302.072 270.666 302.026 270.779 301.96C270.896 301.895 270.954 301.781 270.954 301.619V301.585C270.954 301.165 270.839 300.838 270.609 300.605C270.382 300.372 270.037 300.256 269.574 300.256C269.093 300.256 268.717 300.361 268.444 300.571C268.172 300.781 267.98 301.006 267.869 301.244L266.914 300.903C267.085 300.506 267.312 300.196 267.596 299.974C267.883 299.75 268.196 299.594 268.534 299.506C268.875 299.415 269.21 299.369 269.539 299.369C269.75 299.369 269.991 299.395 270.264 299.446C270.539 299.494 270.805 299.595 271.061 299.749C271.319 299.902 271.534 300.134 271.704 300.443C271.875 300.753 271.96 301.168 271.96 301.688V306H270.954V305.114H270.903C270.835 305.256 270.721 305.408 270.562 305.57C270.403 305.732 270.191 305.869 269.927 305.983C269.663 306.097 269.341 306.153 268.96 306.153ZM269.113 305.25C269.511 305.25 269.846 305.172 270.119 305.016C270.395 304.859 270.602 304.658 270.741 304.411C270.883 304.163 270.954 303.903 270.954 303.631V302.71C270.912 302.761 270.818 302.808 270.673 302.851C270.531 302.891 270.366 302.926 270.179 302.957C269.994 302.986 269.814 303.011 269.637 303.034C269.464 303.054 269.324 303.071 269.216 303.085C268.954 303.119 268.71 303.175 268.483 303.251C268.258 303.325 268.076 303.437 267.937 303.588C267.801 303.736 267.733 303.937 267.733 304.193C267.733 304.543 267.862 304.807 268.12 304.986C268.382 305.162 268.713 305.25 269.113 305.25ZM273.795 306V299.455H274.767V300.443H274.835C274.955 300.119 275.17 299.857 275.483 299.655C275.795 299.453 276.148 299.352 276.54 299.352C276.614 299.352 276.706 299.354 276.817 299.357C276.928 299.359 277.011 299.364 277.068 299.369V300.392C277.034 300.384 276.956 300.371 276.834 300.354C276.714 300.334 276.588 300.324 276.455 300.324C276.136 300.324 275.852 300.391 275.602 300.524C275.355 300.655 275.159 300.837 275.014 301.07C274.872 301.3 274.801 301.562 274.801 301.858V306H273.795ZM280.805 306.136C280.175 306.136 279.631 305.997 279.173 305.719C278.719 305.438 278.368 305.045 278.121 304.543C277.876 304.037 277.754 303.449 277.754 302.778C277.754 302.108 277.876 301.517 278.121 301.006C278.368 300.491 278.712 300.091 279.152 299.804C279.595 299.514 280.112 299.369 280.703 299.369C281.044 299.369 281.381 299.426 281.713 299.54C282.045 299.653 282.348 299.838 282.621 300.094C282.893 300.347 283.111 300.682 283.273 301.099C283.435 301.517 283.516 302.031 283.516 302.642V303.068H278.47V302.199H282.493C282.493 301.83 282.419 301.5 282.271 301.21C282.126 300.92 281.919 300.692 281.649 300.524C281.382 300.357 281.067 300.273 280.703 300.273C280.303 300.273 279.956 300.372 279.663 300.571C279.374 300.767 279.151 301.023 278.994 301.338C278.838 301.653 278.76 301.991 278.76 302.352V302.932C278.76 303.426 278.845 303.845 279.016 304.189C279.189 304.53 279.429 304.79 279.736 304.969C280.043 305.145 280.399 305.233 280.805 305.233C281.07 305.233 281.308 305.196 281.521 305.122C281.737 305.045 281.923 304.932 282.08 304.781C282.236 304.628 282.357 304.437 282.442 304.21L283.413 304.483C283.311 304.812 283.139 305.102 282.898 305.352C282.656 305.599 282.358 305.793 282.003 305.932C281.648 306.068 281.249 306.136 280.805 306.136Z" fill="white"/>
<defs>
<filter id="filter0_d_91_63" x="0" y="0" width="514" height="209" filterUnits="userSpaceOnUse" color-interpolation-filters="sRGB">
<feFlood flood-opacity="0" result="BackgroundImageFix"/>
<feColorMatrix in="SourceAlpha" type="matrix" values="0 0 0 0 0 0 0 0 0 0 0 0 0 0 0 0 0 0 127 0" result="hardAlpha"/>
<feOffset dy="4"/>
<feGaussianBlur stdDeviation="2"/>
<feComposite in2="hardAlpha" operator="out"/>
<feColorMatrix type="matrix" values="0 0 0 0 0 0 0 0 0 0 0 0 0 0 0 0 0 0 0.25 0"/>
<feBlend mode="normal" in2="BackgroundImageFix" result="effect1_dropShadow_91_63"/>
<feBlend mode="normal" in="SourceGraphic" in2="effect1_dropShadow_91_63" result="shape"/>
</filter>
</defs>
</svg>
